<svg viewBox="0 0 169 51" xmlns="http://www.w3.org/2000/svg"><g fill="#fff"><path d="m65.727 9.7956c3.0307-6.5961-3.2581-9.7408-8.1073-6.6728-4.0157 2.5311-5.8342 11.812-8.7891 19.175-2.0458 5.1388-4.5462 10.815-7.2739 15.647-.1515.2301-.4546.1534-.5303-.0767-1.6669-9.2039 4.3946-36.355-5.3796-37.199-2.955-.2301-9.5469 2.5311-7.5011 6.9796-.8335 9.8175-6.1373 19.635-10.986 28.072-.1515.3068-.6819.2301-.7577-.1534-1.3638-8.3602-.0758-14.343-1.6669-27.918-.985-8.2068-10.077-5.7524-13.714-.61359-2.4246 3.4515 3.1065 4.6786 3.1823 7.5932.22731 10.584-.53038 21.476-.53038 31.907.75769 3.2981 3.4096 3.6815 6.8949 3.7582 10.153-.4601 14.699-12.885 19.018-20.785.0758 4.5253-.3031 8.3602-.1516 12.886-1.7426 4.9854.5304 8.5902 5.91 8.0533 16.518-1.2271 25.761-27.765 30.383-40.65z"/><path d="m142.78 34.033c-2.425-2.0708-3.789 1.534-5.228 3.2981-3.031 3.8349-9.85 8.5903-13.942 3.9116 6.668-1.764 16.897-10.968 11.062-17.564-9.168-10.431-28.261 3.7582-23.185 17.257-3.409 2.3009-10.986 4.7553-13.941.0766 6.7432-1.764 17.048-10.354 11.365-17.641-11.062-9.5107-28.186 3.8349-23.412 17.411-3.4853 2.6844-11.517 4.5252-13.563-1.2272 21.367-2.7612 13.335-25.924-5.3038-16.49-5.9857 3.298-7.7284 10.584-6.213 16.874 2.8792 12.348 19.548 12.425 27.959 5.9058 6.7435 7.2864 18.563 4.9087 25.988.0767 7.577 8.2068 20.458 2.9912 26.823-4.3719 1.288-1.3805 4.243-5.4456 1.591-7.5165zm-66.525-8.0534c1.97.8437.4547 7.6699-5.228 7.5165-1.4396-3.5281 2.1215-8.8203 5.228-7.5165zm19.397 3.2981c4.3189-7.5165 9.0165 2.1476.0758 5.7524-.6819-1.9174-1.1365-3.4514-.0758-5.7524zm26.368.1534c4.395-7.0563 8.486 2.2243-.53 5.8291-.758-2.4543-.455-4.2184.53-5.8291z"/><path d="m169 6.421c-.227-2.6078-4.698-5.0621-6.137-5.2155-8.486-1.1505-11.972 9.0504-14.018 15.8-1.363 4.602-5 15.416.531 18.945 1.364.8437 5.91 1.9942 6.289-.0767 3.182-16.414 13.183-25.924 13.335-29.452z"/><path d="m148.01 40.092c-5.834 3.2981-1.591 12.885 4.47 9.7408 5.759-2.9913 1.743-12.349-4.47-9.7408z"/></g></svg>